<?xml version="1.0" encoding="UTF-8" standalone="no"?>
<!-- Created with Inkscape (http://www.inkscape.org/) -->

<svg
   xmlns:dc="http://purl.org/dc/elements/1.1/"
   xmlns:cc="http://creativecommons.org/ns#"
   xmlns:rdf="http://www.w3.org/1999/02/22-rdf-syntax-ns#"
   xmlns:svg="http://www.w3.org/2000/svg"
   xmlns="http://www.w3.org/2000/svg"
   xmlns:sodipodi="http://sodipodi.sourceforge.net/DTD/sodipodi-0.dtd"
   xmlns:inkscape="http://www.inkscape.org/namespaces/inkscape"
   width="14.061744mm"
   height="15.99999mm"
   viewBox="0 0 14.061744 15.999991"
   version="1.1"
   id="svg8"
   inkscape:version="0.92.4 (unknown)"
   sodipodi:docname="sheep-head-handles-1.svg">
  <defs
     id="defs2">
    <marker
       inkscape:stockid="DotM"
       orient="auto"
       refY="0.0"
       refX="0.0"
       id="DotM"
       style="overflow:visible"
       inkscape:isstock="true">
      <path
         id="path889"
         d="M -2.5,-1.0 C -2.5,1.7600000 -4.7400000,4.0 -7.5,4.0 C -10.260000,4.0 -12.5,1.7600000 -12.5,-1.0 C -12.5,-3.7600000 -10.260000,-6.0 -7.5,-6.0 C -4.7400000,-6.0 -2.5,-3.7600000 -2.5,-1.0 z "
         style="fill-rule:evenodd;stroke:#000000;stroke-width:1pt;stroke-opacity:1;fill:#000000;fill-opacity:1"
         transform="scale(0.4) translate(7.4, 1)" />
    </marker>
  </defs>
  <sodipodi:namedview
     id="base"
     pagecolor="#ffffff"
     bordercolor="#666666"
     borderopacity="1.0"
     inkscape:pageopacity="0.0"
     inkscape:pageshadow="2"
     inkscape:zoom="9.4929293"
     inkscape:cx="22.441966"
     inkscape:cy="29.380598"
     inkscape:document-units="mm"
     inkscape:current-layer="layer1"
     showgrid="false"
     fit-margin-top="0"
     fit-margin-left="0"
     fit-margin-right="0"
     fit-margin-bottom="0"
     inkscape:window-width="1578"
     inkscape:window-height="853"
     inkscape:window-x="186"
     inkscape:window-y="78"
     inkscape:window-maximized="0"
     inkscape:showpageshadow="false"
     showborder="false" />
  <metadata
     id="metadata5">
    <rdf:RDF>
      <cc:Work
         rdf:about="">
        <dc:format>image/svg+xml</dc:format>
        <dc:type
           rdf:resource="http://purl.org/dc/dcmitype/StillImage" />
        <dc:title></dc:title>
      </cc:Work>
    </rdf:RDF>
  </metadata>
  <g
     inkscape:label="Taso 1"
     inkscape:groupmode="layer"
     id="layer1"
     transform="translate(-57.727238,-143.86852)">
    <path
       style="fill:none;stroke:#000000;stroke-width:0.234;stroke-miterlimit:4;stroke-dasharray:none;stroke-opacity:0.18618618"
       d="m 71.377576,152.61966 c -1.106451,-3.83916 -3.259703,-7.02543 -5.471211,-8.09601 -1.51227,-0.73207 -3.851271,-0.71483 -5.068354,0.0374 -1.885143,1.16507 -3.018469,3.64683 -2.993332,6.55479 0.0339,3.92141 2.117241,6.86883 5.68336,8.04051 1.565461,0.51435 1.852023,0.563 3.49038,0.59264 1.208068,0.0219 1.694509,-0.0864 3.013445,-0.85934 1.068091,-0.66145 2.118171,-3.58972 1.345712,-6.26999 z"
       id="path839"
       inkscape:connector-curvature="0"
       sodipodi:nodetypes="sccscccs" />
    <path
       id="path820"
       style="stroke-linejoin:miter;stroke-opacity:1;fill-opacity:1;stroke:#000000;stroke-linecap:butt;stroke-width:0.05;fill:none;stroke-miterlimit:4;stroke-dasharray:none"
       d="M70.271125 148.7805L71.377576 152.61966M68.117873 145.59423L65.906365 144.52365M64.394095 143.79158L65.906365 144.52365M62.055094 143.80882L60.838011 144.56105M58.952868 145.72612L60.838011 144.56105M57.819542 148.20788L57.844679 151.11584M57.878579 155.03725L57.844679 151.11584M59.96192 157.98467L63.528039 159.15635M65.0935 159.6707L63.528039 159.15635M65.380062 159.71935L67.018419 159.74899M68.226487 159.77089L67.018419 159.74899M68.712928 159.66259L70.031864 158.88965M71.099955 158.2282L70.031864 158.88965M72.150035 155.29993L71.377576 152.61966" />
  </g>
</svg>
