<?xml version="1.0" encoding="UTF-8" standalone="no"?>
<!-- Created with Inkscape (http://www.inkscape.org/) -->

<svg
   xmlns:dc="http://purl.org/dc/elements/1.1/"
   xmlns:cc="http://creativecommons.org/ns#"
   xmlns:rdf="http://www.w3.org/1999/02/22-rdf-syntax-ns#"
   xmlns:svg="http://www.w3.org/2000/svg"
   xmlns="http://www.w3.org/2000/svg"
   xmlns:sodipodi="http://sodipodi.sourceforge.net/DTD/sodipodi-0.dtd"
   xmlns:inkscape="http://www.inkscape.org/namespaces/inkscape"
   version="1.1"
   id="svg2"
   xml:space="preserve"
   width="345.28"
   height="240.96001"
   viewBox="0 0 345.28 240.96001"
   sodipodi:docname="head-curve.svg"
   inkscape:version="0.92.4 (unknown)"><metadata
     id="metadata8"><rdf:RDF><cc:Work
         rdf:about=""><dc:format>image/svg+xml</dc:format><dc:type
           rdf:resource="http://purl.org/dc/dcmitype/StillImage" /><dc:title /></cc:Work></rdf:RDF></metadata><defs
     id="defs6" /><sodipodi:namedview
     pagecolor="#ffffff"
     bordercolor="#666666"
     borderopacity="1"
     objecttolerance="10"
     gridtolerance="10"
     guidetolerance="10"
     inkscape:pageopacity="0"
     inkscape:pageshadow="2"
     inkscape:window-width="1124"
     inkscape:window-height="869"
     id="namedview4"
     showgrid="false"
     inkscape:snap-global="false"
     inkscape:zoom="2.7702058"
     inkscape:cx="237.68287"
     inkscape:cy="194.06581"
     inkscape:window-x="586"
     inkscape:window-y="46"
     inkscape:window-maximized="0"
     inkscape:current-layer="g10" /><g
     id="g10"
     inkscape:groupmode="layer"
     inkscape:label="title-image"
     transform="matrix(1.3333333,0,0,-1.3333333,0,240.96)"><g
       id="g12"
       transform="translate(72,108.721)"><g
         id="g14"
         transform="translate(-179.506,-103.739)"><g
           id="g16"><g
             id="g18"><g
               id="g20"><g
                 id="g22" /><g
                 id="g24" /><path
                 d="M 267.91444,62.39749 V 15.03111"
                 style="fill:none;stroke:#ffffff;stroke-width:9.96277046;stroke-linecap:butt;stroke-linejoin:miter;stroke-miterlimit:10;stroke-dasharray:none;stroke-opacity:1"
                 id="path26"
                 inkscape:connector-curvature="0" /><g
                 id="g28" /><g
                 id="g30" /><path
                 d="M 172.25781,61.01207 V 15.03111"
                 style="fill:none;stroke:#ffffff;stroke-width:9.96277046;stroke-linecap:butt;stroke-linejoin:miter;stroke-miterlimit:10;stroke-dasharray:none;stroke-opacity:1"
                 id="path32"
                 inkscape:connector-curvature="0" /><g
                 id="g34" /><g
                 id="g36" /><path
                 d="M 252.88374,62.24393 V 0"
                 style="fill:none;stroke:#ffffff;stroke-width:9.96277046;stroke-linecap:butt;stroke-linejoin:miter;stroke-miterlimit:10;stroke-dasharray:none;stroke-opacity:1"
                 id="path38"
                 inkscape:connector-curvature="0" /><g
                 id="g40" /><g
                 id="g42" /><path
                 d="M 157.22668,71.93927 V 0"
                 style="fill:none;stroke:#ffffff;stroke-width:9.96277046;stroke-linecap:butt;stroke-linejoin:miter;stroke-miterlimit:10;stroke-dasharray:none;stroke-opacity:1"
                 id="path44"
                 inkscape:connector-curvature="0" /></g><g
               id="g46"><path
                 d="m 299.56888,124.12065 v 0 c 1.10092,9.17586 -5.18344,17.60645 -14.29122,19.17243 -0.0598,8.96745 -4.9015,17.2247 -12.69751,21.6565 -6.57321,3.73653 -14.48721,4.31078 -21.53083,1.5626 -5.26255,6.25567 -13.46575,9.2295 -21.51458,7.79986 -4.78062,-0.84891 -9.17014,-3.19978 -12.52777,-6.70684 -5.06236,4.09142 -11.92506,5.17162 -17.99951,2.83328 -3.58732,-1.38077 -6.64972,-3.86455 -8.74146,-7.0896 -5.34928,4.38485 -12.63392,5.5836 -19.10601,3.14386 -4.70603,-1.77402 -8.53925,-5.31208 -10.68381,-9.86119 -7.43753,2.67012 -15.73756,1.16862 -21.76848,-3.93735 -5.05096,-4.27626 -7.92363,-10.59311 -7.82574,-17.2107 -7.59546,-1.67144 -13.72515,-7.27053 -16.075,-14.68428 -1.83957,-5.80372 -1.16446,-12.11712 1.8615,-17.40025 -9.16089,-10.43381 -8.12929,-26.31911 2.30452,-35.48001 3.92422,-3.44545 8.82751,-5.5854 14.02273,-6.11787 1.22112,-7.14614 6.16413,-13.10031 12.96339,-15.61562 4.53823,-1.67883 9.53046,-1.68068 14.06992,-0.005 2.31328,-6.41595 7.87622,-11.11244 14.58934,-12.31656 3.75658,-0.67387 7.63115,-0.20628 11.11942,1.3425 4.42589,-7.07837 12.29487,-11.25894 20.6378,-10.96544 6.65972,0.23429 12.90506,3.30399 17.16049,8.43135 8.42325,-5.08084 19.32179,-3.03543 25.33033,4.7529 7.31622,-4.03903 16.23501,-3.86766 23.39094,0.44875 5.94859,3.58813 9.99656,9.63919 11.04327,16.50668 7.30959,0.34448 13.883,4.56494 17.23909,11.06769 2.00159,3.87846 2.71308,8.29677 2.0288,12.60725 12.40437,5.67992 17.85548,20.33995 12.17556,32.74433 -2.92967,6.39839 -8.45166,11.24565 -15.1761,13.32039"
                 style="fill:#ffffff;fill-opacity:1;fill-rule:nonzero;stroke:none"
                 id="path48"
                 inkscape:connector-curvature="0" /></g><g
               id="g50"><g
                 id="g52" /><g
                 id="g54" /><g
                 id="g56" /><g
                 id="g58" /><g
                 id="g60" /><g
                 id="g62" /><g
                 id="g64" /><g
                 id="g66" /><g
                 id="g68" /><g
                 id="g70" /><g
                 id="g72" /><g
                 id="g74" /><g
                 id="g76" /><g
                 id="g78" /><g
                 id="g80" /><g
                 id="g82" /><g
                 id="g84" /><g
                 id="g86" /><g
                 id="g88" /><g
                 id="g90" /><g
                 id="g92" /><g
                 id="g94" /><g
                 id="g96" /><g
                 id="g98" /><g
                 id="g100" /><g
                 id="g102" /><g
                 id="g104" /><g
                 id="g106" /><g
                 id="g108" /><g
                 id="g110" /><g
                 id="g112" /><g
                 id="g114" /><g
                 id="g116" /><path
                 d="m 264.38493,149.67197 -8.17149,5.69307 -8.13995,3.81239 -7.94052,2.12117 -7.57244,0.61938 -7.0361,-0.69378 -6.33148,-1.81797 -5.45865,-2.75267 -4.41707,-3.49879 -3.20726,-4.05505 -1.82964,-4.42313 v 0 l -0.23834,-3.38245 0.88066,-2.92569 1.81276,-2.44601 2.55673,-1.9438 3.11254,-1.41831 3.48108,-0.86983 3.66099,-0.29846 3.65409,0.29587 3.45901,0.91309 3.07578,1.55366 v 0 l 3.15664,1.97153 3.17397,1.72322 3.17052,1.45289 3.14714,1.1605 3.10215,0.84604 3.03685,0.50953 2.9508,0.15139 2.84391,-0.22881 2.71636,-0.6315 2.56796,-1.05626 z"
                 style="fill:#b3b3b3;fill-opacity:1;fill-rule:nonzero;stroke:none"
                 id="path118"
                 inkscape:connector-curvature="0" /><g
                 id="g120" /><g
                 id="g122" /><g
                 id="g124" /><g
                 id="g126" /><g
                 id="g128" /><g
                 id="g130" /><g
                 id="g132" /><g
                 id="g134" /><g
                 id="g136" /><g
                 id="g138" /><g
                 id="g140" /><g
                 id="g142" /><g
                 id="g144" /><g
                 id="g146" /><g
                 id="g148" /><g
                 id="g150" /><g
                 id="g152" /><g
                 id="g154" /><g
                 id="g156" /><g
                 id="g158" /><g
                 id="g160" /><g
                 id="g162" /><g
                 id="g164" /><g
                 id="g166" /><g
                 id="g168" /><g
                 id="g170" /><g
                 id="g172" /><g
                 id="g174" /><g
                 id="g176" /><g
                 id="g178" /><g
                 id="g180" /><g
                 id="g182" /><g
                 id="g184" /><path
                 d="m 307.96184,160.56631 7.25756,5.82065 7.47771,3.92919 7.49071,2.25697 7.29605,0.80452 6.89421,-0.42908 6.28478,-1.44293 5.46902,-2.23752 4.44562,-2.81279 3.21461,-3.16835 1.77643,-3.30502 v 0 l 0.70462,-3.12552 0.20026,-2.7782 -0.25736,-2.43433 -0.66697,-2.09434 -1.03031,-1.7574 -1.34562,-1.42435 -1.61425,-1.09433 -1.83525,-0.7686 -2.00956,-0.44552 -2.13631,-0.12673 v 0 l -2.63977,0.39966 -3.41446,1.00348 -3.98497,1.4118 -4.35176,1.62377 -4.51483,1.63974 -4.47289,1.45939 -4.22763,1.0835 -3.77777,0.51083 -3.12424,-0.25737 -2.26649,-1.22192 z"
                 style="fill:#b3b3b3;fill-opacity:1;fill-rule:nonzero;stroke:none"
                 id="path186"
                 inkscape:connector-curvature="0" /></g><g
               id="g188"><g
                 id="g190" /><g
                 id="g192" /><g
                 id="g194" /><g
                 id="g196" /><g
                 id="g198" /><g
                 id="g200" /><g
                 id="g202" /><g
                 id="g204" /><g
                 id="g206" /><g
                 id="g208" /><g
                 id="g210" /><g
                 id="g212" /><g
                 id="g214" /><g
                 id="g216" /><g
                 id="g218" /><g
                 id="g220" /><g
                 id="g222" /><g
                 id="g224" /><g
                 id="g226" /><g
                 id="g228" /><g
                 id="g230" /><g
                 id="g232" /><g
                 id="g234" /><g
                 id="g236" /><g
                 id="g238" /><g
                 id="g240" /><g
                 id="g242" /><g
                 id="g244" /><g
                 id="g246" /><g
                 id="g248" /><g
                 id="g250" /><g
                 id="g252" /><g
                 id="g254" /><g
                 id="g256" /><g
                 id="g258" /><g
                 id="g260" /><g
                 id="g262" /><g
                 id="g264" /><g
                 id="g266" /><g
                 id="g268" /><g
                 id="g270" /><g
                 id="g272" /><g
                 id="g274" /><g
                 id="g276" /><g
                 id="g278" /><g
                 id="g280" /><g
                 id="g282" /><g
                 id="g284" /><g
                 id="g286" /><g
                 id="g288" /><g
                 id="g290" /><g
                 id="g292" /><g
                 id="g294" /><g
                 id="g296" /><g
                 id="g298" /><g
                 id="g300" /><g
                 id="g302" /><g
                 id="g304" /><g
                 id="g306" /><g
                 id="g308" /><g
                 id="g310" /><g
                 id="g312" /><g
                 id="g314" /><g
                 id="g316" /><g
                 id="g318" /><g
                 id="g320" /><g
                 id="g322" /><g
                 id="g324" /><g
                 id="g326" /><g
                 id="g328" /><path
                 d="m 340.11327,113.80072 -2.25353,7.01102 -2.60647,6.71127 -2.92095,6.35916 -3.19774,5.95259 -3.43652,5.4928 -3.63721,4.9798 -3.80028,4.41276 -3.92527,3.79206 -4.01265,3.11816 -4.06154,2.39021 -2.93391,1.20505 -3.17397,0.93645 -3.34178,0.66611 -3.43608,0.39491 -3.45859,0.1224 -3.40883,-0.15095 -3.28555,-0.42519 -3.09049,-0.70115 -2.82231,-0.97795 -2.48233,-1.25568 -3.37337,-2.41571 -3.07837,-2.87248 -2.76867,-3.29422 -2.44256,-3.68132 -2.10082,-4.03429 -1.74399,-4.35219 -1.37114,-4.63553 -0.98273,-4.88463 -0.57918,-5.09877 -0.15918,-5.2787 0.43731,-7.12086 1.18342,-6.72338 1.90663,-6.29731 2.60648,-5.84186 3.28252,-5.35741 3.93566,-4.84401 4.56501,-4.30201 5.171,-3.73021 5.75362,-3.13028 6.31245,-2.50051 2.68304,-0.86723 2.31062,-0.71585 2.03379,-0.57961 1.853,-0.4589 1.76778,-0.35427 1.77946,-0.26471 1.88629,-0.19117 2.08959,-0.13321 2.38847,-0.09085 2.78383,-0.06403 2.10774,-0.02463 1.898,0.04973 1.74615,0.14403 1.65228,0.2565 1.61684,0.38798 1.63889,0.53895 1.71934,0.7085 1.85774,0.89709 2.05457,1.10469 2.30844,1.33092 1.99184,1.63586 1.91398,2.38934 1.76908,3.04765 1.5567,3.61127 1.27772,4.07971 0.93213,4.45384 0.5186,4.73283 0.0394,4.91667 -0.5078,5.00618 -0.93557,4.81457 z"
                 style="fill:#b3b3b3;fill-opacity:1;fill-rule:nonzero;stroke:none"
                 id="path330"
                 inkscape:connector-curvature="0" /></g><g
               id="g332"><g
                 id="g334" /><path
                 d="m 292.5505,133.72949 c 0,6.75046 -5.47216,12.22264 -12.22263,12.22264 -6.75047,0 -12.22266,-5.47218 -12.22266,-12.22264 0,-6.75047 5.47219,-12.22265 12.22266,-12.22265 6.75047,0 12.22263,5.47218 12.22263,12.22265 z"
                 style="fill:#ffffff;fill-opacity:1;fill-rule:nonzero;stroke:none"
                 id="path336"
                 inkscape:connector-curvature="0" /><g
                 id="g338" /><path
                 d="m 315.40192,139.04364 c 0,5.42989 -4.40169,9.83157 -9.83158,9.83157 -5.42988,0 -9.83157,-4.40168 -9.83157,-9.83157 0,-5.42989 4.40169,-9.83157 9.83157,-9.83157 5.42989,0 9.83158,4.40168 9.83158,9.83157 z"
                 style="fill:#ffffff;fill-opacity:1;fill-rule:nonzero;stroke:none"
                 id="path340"
                 inkscape:connector-curvature="0" /></g><g
               id="g342"><g
                 id="g344" /><path
                 d="m 292.5505,133.72949 c 0,6.75046 -5.47216,12.22264 -12.22263,12.22264 -6.75047,0 -12.22266,-5.47218 -12.22266,-12.22264 0,-6.75047 5.47219,-12.22265 12.22266,-12.22265 6.75047,0 12.22263,5.47218 12.22263,12.22265 z"
                 style="fill:none;stroke:#000000;stroke-width:1.59404004;stroke-linecap:butt;stroke-linejoin:miter;stroke-miterlimit:10;stroke-dasharray:none;stroke-opacity:1"
                 id="path346"
                 inkscape:connector-curvature="0" /><g
                 id="g348" /><path
                 d="m 315.40192,139.04364 c 0,5.42989 -4.40169,9.83157 -9.83158,9.83157 -5.42988,0 -9.83157,-4.40168 -9.83157,-9.83157 0,-5.42989 4.40169,-9.83157 9.83157,-9.83157 5.42989,0 9.83158,4.40168 9.83158,9.83157 z"
                 style="fill:none;stroke:#000000;stroke-width:1.59404004;stroke-linecap:butt;stroke-linejoin:miter;stroke-miterlimit:10;stroke-dasharray:none;stroke-opacity:1"
                 id="path350"
                 inkscape:connector-curvature="0" /></g><g
               id="g352"><g
                 id="g354" /><path
                 d="m 310.88449,81.91531 c 0,1.46749 -1.18959,2.65709 -2.65707,2.65709 -1.46749,0 -2.65708,-1.1896 -2.65708,-2.65709 0,-1.46746 1.18959,-2.65707 2.65708,-2.65707 1.46748,0 2.65707,1.18961 2.65707,2.65707 z"
                 style="fill:#000000;fill-opacity:1;fill-rule:nonzero;stroke:none"
                 id="path356"
                 inkscape:connector-curvature="0" /><g
                 id="g358" /><path
                 d="m 321.51326,84.57242 c 0,1.46747 -1.18961,2.65707 -2.65707,2.65707 -1.46749,0 -2.65708,-1.1896 -2.65708,-2.65707 0,-1.46749 1.18959,-2.65709 2.65708,-2.65709 1.46746,0 2.65707,1.1896 2.65707,2.65709 z"
                 style="fill:#000000;fill-opacity:1;fill-rule:nonzero;stroke:none"
                 id="path360"
                 inkscape:connector-curvature="0" /></g><g
               id="g362"><g
                 id="g364" /><path
                 d="m 288.03308,132.40073 c 0,2.05441 -1.6654,3.71981 -3.71982,3.71981 -2.05441,0 -3.71982,-1.6654 -3.71982,-3.71981 0,-2.05442 1.66541,-3.71982 3.71982,-3.71982 2.05442,0 3.71982,1.6654 3.71982,3.71982 z"
                 style="fill:#000000;fill-opacity:1;fill-rule:nonzero;stroke:none"
                 id="path366"
                 inkscape:connector-curvature="0" /><g
                 id="g368" /><path
                 d="m 307.96184,136.38657 c 0,2.05441 -1.66541,3.71981 -3.71982,3.71981 -2.05442,0 -3.71982,-1.6654 -3.71982,-3.71981 0,-2.05442 1.6654,-3.71982 3.71982,-3.71982 2.05441,0 3.71982,1.6654 3.71982,3.71982 z"
                 style="fill:#000000;fill-opacity:1;fill-rule:nonzero;stroke:none"
                 id="path370"
                 inkscape:connector-curvature="0" /></g></g></g></g></g><path
       style="fill:none;stroke:#ff5555;stroke-width:0.75px;stroke-linecap:butt;stroke-linejoin:miter;stroke-opacity:1"
       d="m 224.06522,140.75569 c -12.75909,26.54817 -35.17523,37.72872 -55.08492,28.87643 -24.64112,-13.44778 -23.61687,-46.86715 -14.71241,-65.56252 11.01309,-22.876443 46.80804,-38.264123 69.04929,-24.415408 16.65956,14.174061 10.60192,40.598278 0.74804,61.101498 z"
       id="path372"
       inkscape:connector-curvature="0"
       sodipodi:nodetypes="scccs" /><g
       transform="matrix(5.3489659,0,0,-5.3489659,-350.65724,895.52905)"
       id="layer1"
       inkscape:label="Taso 1"><path
         sodipodi:nodetypes="cssc"
         inkscape:connector-curvature="0"
         id="path31"
         d="m 94.959094,138.60239 c -3.013762,-2.15375 -5.583216,-2.93662 -8.177531,-1.8895 -3.528273,1.42408 -4.333999,4.44844 -0.620234,5.12251 2.632202,0.47776 5.162436,-3.41263 7.900071,-1.414"
         style="fill:none;stroke:#d35f5f;stroke-width:0.26458332px;stroke-linecap:butt;stroke-linejoin:miter;stroke-opacity:1" /><path
         sodipodi:nodetypes="cssc"
         inkscape:connector-curvature="0"
         id="path35"
         d="m 102.9169,136.48297 c 4.02086,-3.10308 5.25397,-2.31222 7.95813,-2.05833 3.36916,0.31633 4.34483,5.09312 0.99518,5.20026 -1.57256,0.0503 -5.52449,-2.36119 -6.92169,-1.44104"
         style="fill:none;stroke:#ff8080;stroke-width:0.26458332px;stroke-linecap:butt;stroke-linejoin:miter;stroke-opacity:1" /></g></g></svg>